# 3ds Max Wavefront OBJ Exporter v0.97b - (c)2007 guruware
# File Created: 16.03.2018 12:12:21

mtllib woman_mask.mtl

#
# object Part1
#

v  15.2874 -67.3283 -4.0272
v  17.7211 -60.5519 -6.9466
v  26.7407 -67.8258 -1.0929
v  21.8102 -73.4561 0.3492
v  -0.7593 -78.9715 2.2436
v  -0.7593 -68.5905 -4.9208
v  17.4420 -60.3396 12.1891
v  10.5487 -67.1159 13.8813
v  24.1023 -83.9304 14.4454
v  32.8158 -69.3340 15.2752
v  32.8966 -78.5605 10.6863
v  36.4936 -73.6120 13.8347
v  10.3982 -32.6307 -16.1628
v  -0.7593 -32.5863 -17.3674
v  -0.5063 -11.1542 -19.7458
v  10.3002 -11.0646 -18.7092
v  -0.5063 11.1210 -19.7465
v  9.3579 11.4512 -18.7653
v  -0.7593 -84.9312 8.0954
v  9.2546 -53.3244 14.4454
v  -4.1099 -56.3837 14.3044
v  -0.7593 -91.0464 14.4453
v  -3.4911 -73.3561 14.2895
v  9.1524 -53.3427 -11.1713
v  -0.7593 -53.0656 -12.2293
v  -16.8060 -67.3283 -4.0272
v  -23.3287 -73.4561 0.3492
v  -37.7373 -57.0025 -3.8653
v  -21.7734 -53.4966 -9.9863
v  9.8489 11.1071 14.4454
v  -18.2241 -20.9808 14.4454
v  10.2461 -32.6932 14.4454
v  10.3502 -10.3786 14.4454
v  -18.1082 -44.7460 14.4184
v  9.1583 -43.2022 14.4454
v  -32.1653 -26.7897 14.4387
v  9.4275 20.2882 14.4454
v  -37.5985 -6.9507 14.3274
v  -50.8639 -34.1274 14.4454
v  -36.0055 -55.6074 14.4454
v  -59.5188 -9.0572 14.4454
v  -55.2875 19.1307 14.4454
v  -29.6489 19.0260 13.9802
v  -69.5892 -10.5770 14.4360
v  -63.7827 -38.1913 14.4391
v  -68.0347 16.8702 14.4365
v  -48.8588 -65.3660 14.4442
v  -25.6209 -83.9304 14.4454
v  -21.5784 -64.2129 14.4394
v  -46.7528 -59.6876 2.8045
v  -27.2812 -77.5174 6.4118
v  -57.7204 -36.1637 -1.3642
v  -63.2530 -10.5435 -3.0258
v  -62.9349 14.4795 -2.7662
v  -47.6807 13.1481 -11.0694
v  -47.8031 -10.5651 -11.2862
v  -44.4122 -34.6037 -9.0286
v  -25.3934 -32.6811 -14.7935
v  -25.5561 -10.9464 -17.3430
v  -25.5562 11.9595 -17.2548
v  -0.0285 20.1685 14.0963
v  9.4833 20.6644 -17.7161
v  0.0819 20.2042 -18.7340
v  -25.3886 18.9910 -16.4125
v  -47.1734 19.2954 -10.1169
v  -61.3829 17.1958 -2.5689
# 66 vertices

vn 0.1158 -0.4621 -0.8792
vn 0.6209 0.2615 -0.7390
vn 0.7120 0.0068 -0.7022
vn 0.2194 -0.6248 -0.7494
vn -0.0000 -0.6465 -0.7629
vn -0.0000 -0.5005 -0.8658
vn 0.4576 0.6468 0.6101
vn 0.0721 0.0806 0.9941
vn 0.3074 -0.8362 0.4542
vn 0.1847 0.2723 0.9443
vn 0.7002 -0.6299 -0.3361
vn 0.3732 -0.6757 0.6357
vn 0.7477 -0.1306 -0.6510
vn 0.0013 -0.1763 -0.9843
vn 0.0004 -0.0554 -0.9985
vn 0.7393 -0.0193 -0.6731
vn -0.0018 0.0542 -0.9985
vn 0.7143 0.0441 -0.6984
vn 0.0166 -0.7114 -0.7026
vn 0.5446 0.1061 0.8320
vn 0.0042 -0.0178 0.9998
vn -0.0002 -0.9380 0.3467
vn 0.0186 0.0153 0.9997
vn 0.6135 -0.1269 -0.7795
vn -0.0012 -0.3329 -0.9430
vn -0.1158 -0.4621 -0.8792
vn -0.2384 -0.6068 -0.7582
vn -0.3687 -0.4052 -0.8366
vn -0.1835 -0.3404 -0.9222
vn 0.7098 0.0231 0.7040
vn -0.0004 0.0001 1.0000
vn 0.7315 -0.0527 0.6798
vn 0.7197 0.0030 0.6943
vn 0.0013 -0.0032 1.0000
vn 0.6829 -0.0238 0.7301
vn -0.0008 0.0021 1.0000
vn 0.5547 0.5908 0.5859
vn -0.0003 0.0090 1.0000
vn -0.0001 -0.0001 1.0000
vn 0.0005 0.0002 1.0000
vn 0.0017 0.0002 1.0000
vn -0.0694 0.7295 0.6804
vn -0.0075 0.7101 0.7040
vn -0.8370 -0.0615 0.5437
vn -0.7981 -0.2946 0.5256
vn -0.6858 0.5296 0.4992
vn -0.6490 -0.5762 0.4967
vn -0.3717 -0.8183 0.4385
vn 0.0045 0.0021 1.0000
vn -0.6139 -0.5222 -0.5919
vn -0.3830 -0.7210 -0.5774
vn -0.7047 -0.3041 -0.6411
vn -0.7587 -0.0916 -0.6450
vn -0.7613 0.2168 -0.6110
vn -0.3698 0.0902 -0.9247
vn -0.3723 -0.0637 -0.9259
vn -0.3691 -0.2236 -0.9021
vn -0.1891 -0.1812 -0.9651
vn -0.1798 -0.0561 -0.9821
vn -0.1820 0.0621 -0.9813
vn -0.0307 0.9458 0.3232
vn 0.5937 0.6265 -0.5050
vn -0.0241 0.7242 -0.6891
vn -0.1432 0.7203 -0.6788
vn -0.2667 0.7524 -0.6024
vn -0.5067 0.7393 -0.4436
# 66 vertex normals

vt 0.3004 0.1606 0.3737
vt 0.2918 0.1927 0.3737
vt 0.2538 0.1546 0.3737
vt 0.2730 0.1288 0.3737
vt 0.3639 0.0992 0.3737
vt 0.3639 0.1565 0.3737
vt 0.8793 0.6158 0.3482
vt 0.8735 0.6120 0.3482
vt 0.8812 0.5657 0.3482
vt 0.9081 0.5896 0.3482
vt 0.1880 0.0931 0.3737
vt 0.2501 0.0473 0.3737
vt 0.2515 0.0978 0.3737
vt 0.2251 0.1263 0.3737
vt 0.3200 0.3176 0.3737
vt 0.3639 0.3184 0.3737
vt 0.3639 0.4081 0.3737
vt 0.3230 0.4083 0.3737
vt 0.3639 0.5004 0.3737
vt 0.3265 0.5021 0.3737
vt 0.3639 0.0596 0.3737
vt 0.8462 0.6458 0.3482
vt 0.8293 0.6339 0.3482
vt 0.8293 0.5493 -87.5926
vt 0.8293 0.5978 0.3482
vt 0.3639 0.0163 -94.0057
vt 0.3257 0.2281 0.3737
vt 0.3639 0.2299 0.3737
vt 0.4273 0.1606 0.3737
vt 0.4547 0.1288 0.3737
vt 0.5109 0.2041 0.3737
vt 0.4448 0.2261 0.3737
vt 0.7886 0.7420 0.3482
vt 0.7992 0.7111 0.3482
vt 0.8017 0.7088 0.3482
vt 0.7950 0.7257 0.3482
vt 0.7936 0.6591 0.3482
vt 0.8147 0.6734 0.3482
vt 0.7580 0.6931 0.3482
vt 0.7865 0.7472 0.3482
vt 0.7442 0.7431 0.3482
vt 0.7246 0.6810 0.3482
vt 0.7557 0.6313 0.3482
vt 0.7065 0.7390 0.3482
vt 0.7102 0.7973 0.3482
vt 0.7494 0.7920 0.3482
vt 0.6854 0.7355 0.3482
vt 0.6976 0.6716 0.3482
vt 0.6869 0.7991 0.3482
vt 0.7289 0.6087 0.3482
vt 0.7774 0.5657 0.3482
vt 0.7851 0.6120 0.3482
vt 0.5895 0.1298 0.3737
vt 0.5550 0.1830 0.3737
vt 0.4762 0.0978 0.3737
vt 0.4776 0.0473 0.3737
vt 0.6718 0.2583 0.3737
vt 0.5968 0.2918 0.3737
vt 0.7099 0.3997 0.3737
vt 0.6180 0.4076 0.3737
vt 0.7036 0.5435 0.3737
vt 0.6179 0.5202 0.3737
vt 0.5468 0.5113 0.3737
vt 0.5468 0.4089 0.3737
vt 0.5343 0.3046 0.3737
vt 0.4576 0.3166 0.3737
vt 0.4585 0.4085 0.3737
vt 0.4587 0.5046 0.3737
vt 0.7711 0.7862 0.3482
vt 0.3282 0.5406 0.3737
vt 0.3639 0.5384 0.3737
vt 0.4579 0.5344 0.3737
vt 0.5444 0.5321 0.3737
vt 0.6150 0.5325 0.3737
# 74 texture coords

o Part1
g Part1
usemtl Material__2
s 1
f 1/1/1 2/2/2 3/3/3 4/4/4 
f 1/1/1 4/4/4 5/5/5 6/6/6 
f 7/7/7 8/8/8 9/9/9 10/10/10 
f 10/11/10 9/12/9 11/13/11 12/14/12 
f 12/14/12 11/13/11 4/4/4 3/3/3 
f 13/15/13 14/16/14 15/17/15 16/18/16 
f 16/18/16 15/17/15 17/19/17 18/20/18 
f 11/13/11 19/21/19 5/5/5 4/4/4 
f 20/22/20 21/23/21 8/8/8 7/7/7 
f 22/24/22 9/9/9 8/8/8 23/25/23 
f 19/21/19 11/13/11 9/12/9 22/26/22 
f 14/16/14 13/15/13 24/27/24 25/28/25 
f 25/28/25 24/27/24 2/2/2 1/1/1 6/6/6 
f 26/29/26 27/30/27 28/31/28 29/32/29 
f 26/29/26 6/6/6 5/5/5 27/30/27 
f 30/33/30 31/34/31 32/35/32 33/36/33 
f 34/37/34 35/38/35 32/35/32 31/34/31 36/39/36 
f 36/39/36 31/34/31 30/33/30 37/40/37 38/41/38 
f 36/39/36 39/42/39 40/43/40 34/37/34 
f 39/42/39 36/39/36 38/41/38 41/44/41 
f 42/45/42 41/44/41 38/41/38 43/46/43 
f 41/44/41 44/47/44 45/48/45 39/42/39 
f 41/44/41 42/45/42 46/49/46 44/47/44 
f 40/43/40 47/50/47 48/51/48 49/52/49 
f 45/48/45 47/50/47 40/43/40 39/42/39 
f 47/53/47 50/54/50 51/55/51 48/56/48 
f 50/54/50 47/53/47 45/57/45 52/58/52 
f 52/58/52 45/57/45 44/59/44 53/60/53 
f 46/61/46 54/62/54 53/60/53 44/59/44 
f 53/60/53 54/62/54 55/63/55 56/64/56 
f 50/54/50 28/31/28 27/30/27 51/55/51 
f 28/31/28 50/54/50 52/58/52 57/65/57 
f 56/64/56 57/65/57 52/58/52 53/60/53 
f 57/65/57 58/66/58 29/32/29 28/31/28 
f 58/66/58 57/65/57 56/64/56 59/67/59 
f 60/68/60 59/67/59 56/64/56 55/63/55 
f 58/66/58 59/67/59 15/17/15 14/16/14 
f 59/67/59 60/68/60 17/19/17 15/17/15 
f 51/55/51 27/30/27 5/5/5 19/21/19 
f 43/46/43 38/41/38 37/40/37 61/69/61 
f 34/37/34 40/43/40 49/52/49 21/23/21 
f 22/24/22 23/25/23 49/52/49 48/51/48 
f 23/25/23 8/8/8 21/23/21 49/52/49 
f 21/23/21 20/22/20 35/38/35 34/37/34 
f 19/21/19 22/26/22 48/56/48 51/55/51 
f 14/16/14 25/28/25 29/32/29 58/66/58 
f 25/28/25 6/6/6 26/29/26 29/32/29 
f 62/70/62 18/20/18 17/19/17 63/71/63 
f 63/71/63 17/19/17 60/68/60 64/72/64 
f 64/72/64 60/68/60 55/63/55 65/73/65 
f 65/73/65 55/63/55 54/62/54 66/74/66 
f 66/74/66 54/62/54 46/61/46 
s off
f 65/73/65 66/74/66 46/61/46 42/45/42 
f 64/72/64 65/73/65 42/45/42 43/46/43 
f 63/71/63 64/72/64 43/46/43 61/69/61 
f 7/7/7 10/10/10 3/3/3 2/2/2 
f 20/22/20 7/7/7 2/2/2 24/27/24 
f 24/27/24 13/15/13 35/38/35 20/22/20 
f 13/15/13 16/18/16 32/35/32 35/38/35 
f 16/18/16 18/20/18 33/36/33 32/35/32 
f 18/20/18 62/70/62 30/33/30 33/36/33 
f 62/70/62 63/71/63 61/69/61 37/40/37 
f 30/33/30 62/70/62 37/40/37 
# 61 polygons - 2 triangles

#
# object PART2
#

v  16.1671 68.3085 -3.3956
v  22.6573 74.9388 0.9872
v  28.9318 67.1922 -1.0096
v  24.0286 55.6422 -8.1475
v  20.3339 54.7513 -9.6659
v  -0.2217 68.8837 -4.7342
v  -0.2217 79.1311 2.3968
v  31.5685 73.4031 5.9432
v  25.5732 78.3569 7.1644
v  24.4725 83.2675 14.4454
v  33.1306 77.0828 14.4453
v  17.5739 40.0393 14.4454
v  22.3792 53.2137 14.4454
v  20.7101 63.7342 14.4454
v  6.4218 48.3782 14.4454
v  27.8337 64.2013 14.4451
v  21.2957 49.2047 -10.9723
v  9.1797 20.6644 -17.7161
v  -0.2217 20.2042 -18.7340
v  -0.2217 32.6166 -17.3504
v  14.4737 33.1348 -15.7306
v  -0.2217 53.3727 -12.1338
v  -0.2217 84.8829 8.2424
v  -0.2217 55.3760 14.4454
v  15.9419 67.9051 14.4454
v  -0.2217 73.3361 14.4454
v  -16.3852 67.9051 14.4454
v  -0.2217 90.3254 14.4454
v  -16.6104 68.3085 -3.3956
v  -20.7772 54.7513 -9.6659
v  -36.4006 58.5184 -3.2454
v  -23.1007 74.9388 0.9872
v  -50.4696 35.7407 14.4454
v  -61.3631 43.2943 14.4404
v  -68.3383 16.8702 14.4365
v  -55.2706 19.2037 14.4454
v  -30.6486 55.4286 14.4454
v  -46.4394 67.8928 14.4451
v  -45.7722 62.0329 3.1403
v  -55.9315 39.1861 -0.9714
v  -24.9158 83.2675 14.4454
v  -26.0166 78.3569 7.1644
v  -15.9723 24.3107 14.4454
v  9.2017 20.8913 14.4454
v  11.7423 27.2521 14.0340
v  -3.8554 37.3331 14.4454
v  -26.0028 28.8557 14.4454
v  -12.2584 42.6972 14.4454
v  -11.8424 19.7094 14.4454
v  -2.8469 20.3448 14.4454
v  -29.8859 18.9802 14.4454
v  -61.6865 17.1958 -2.5689
v  -44.0962 36.5827 -8.7506
v  -46.5203 17.9381 -10.5955
v  -24.4673 33.4715 -14.6778
v  -25.0087 18.9910 -16.4125
# 56 vertices

vn 0.1049 0.4611 -0.8811
vn 0.2671 0.6411 -0.7194
vn 0.8158 0.0900 -0.5713
vn 0.7996 0.0022 -0.6005
vn 0.1870 0.3510 -0.9175
vn 0.0000 0.5021 -0.8648
vn -0.0000 0.6527 -0.7576
vn 0.8822 0.2298 -0.4110
vn 0.3700 0.7733 -0.5148
vn 0.3544 0.8087 0.4695
vn 0.8165 0.3393 0.4671
vn 0.6524 -0.2868 0.7015
vn 0.6307 -0.2673 0.7285
vn 0.0000 0.0000 1.0000
vn 0.6551 -0.3004 0.6933
vn 0.7250 -0.0887 -0.6830
vn 0.4911 -0.6174 -0.6145
vn 0.0346 -0.6439 -0.7643
vn 0.0000 0.1754 -0.9845
vn 0.7075 -0.1291 -0.6948
vn -0.0000 0.3328 -0.9430
vn -0.0000 0.7350 -0.6781
vn 0.0000 -0.0000 1.0000
vn -0.0000 -0.0000 1.0000
vn -0.0000 0.9319 0.3626
vn -0.1049 0.4611 -0.8811
vn -0.1870 0.3510 -0.9175
vn -0.3410 0.4039 -0.8488
vn -0.2671 0.6411 -0.7194
vn -0.0002 0.0001 1.0000
vn -0.7846 0.3412 0.5176
vn -0.7184 -0.5370 0.4422
vn 0.0670 -0.6496 0.7573
vn -0.0000 0.0000 1.0000
vn -0.6074 0.6063 0.5133
vn -0.6180 0.5310 -0.5797
vn -0.7036 0.3169 -0.6360
vn -0.3544 0.8087 0.4695
vn -0.3700 0.7733 -0.5148
vn 0.4651 -0.6281 0.6239
vn 0.6671 -0.2670 0.6955
vn 0.0082 -0.0077 0.9999
vn 0.0370 -0.7083 0.7049
vn 0.0434 -0.7131 -0.6997
vn 0.0095 -0.7119 0.7022
vn -0.6234 -0.5595 -0.5462
vn -0.3790 0.2398 -0.8938
vn -0.2549 -0.6657 -0.7013
vn -0.1820 0.1862 -0.9655
vn -0.1073 -0.6478 -0.7542
# 50 vertex normals

vt 0.2995 0.7523 0.3737
vt 0.2729 0.7856 0.3737
vt 0.2479 0.7508 0.3737
vt 0.2695 0.6936 0.3737
vt 0.2849 0.6879 0.3737
vt 0.3639 0.7530 0.3737
vt 0.3639 0.8095 0.3737
vt 0.2311 0.7913 0.3737
vt 0.2548 0.8155 0.3737
vt 0.2518 0.8582 0.3737
vt 0.2106 0.8309 0.3737
vt 0.8545 0.8589 0.3482
vt 0.8929 0.8884 0.3482
vt 0.8731 0.9076 0.3482
vt 0.8432 0.8721 0.3482
vt 0.9259 0.9173 0.3482
vt 0.8990 0.9385 0.3482
vt 0.2814 0.6639 0.3737
vt 0.3282 0.5406 0.3737
vt 0.3639 0.5384 0.3737
vt 0.3639 0.5902 0.3737
vt 0.3079 0.5935 0.3737
vt 0.3639 0.6797 0.3737
vt 0.3639 0.8477 0.3737
vt 0.8293 0.8883 0.3482
vt 0.8631 0.9173 0.3482
vt 0.8293 0.9299 0.3482
vt 0.7955 0.9173 0.3482
vt 0.8809 0.9529 0.3482
vt 0.8293 0.9692 87.5926
vt 0.3639 0.8879 94.0057
vt 0.4282 0.7523 0.3737
vt 0.4428 0.6879 0.3737
vt 0.5077 0.7119 0.3737
vt 0.4548 0.7856 0.3737
vt 0.7242 0.8428 0.3482
vt 0.7015 0.8603 0.3482
vt 0.6869 0.7991 0.3482
vt 0.7102 0.7973 0.3482
vt 0.7657 0.8884 0.3482
vt 0.7327 0.9173 0.3482
vt 0.6599 0.6765 0.3737
vt 0.5782 0.7903 0.3737
vt 0.5511 0.7358 0.3737
vt 0.5921 0.6320 0.3737
vt 0.4759 0.8582 0.3737
vt 0.4729 0.8155 0.3737
vt 0.7964 0.8163 0.3482
vt 0.8101 0.8094 0.3482
vt 0.8293 0.8411 0.3482
vt 0.8217 0.8465 0.3482
vt 0.7754 0.8269 0.3482
vt 0.8041 0.8589 0.3482
vt 0.7777 0.9529 0.3482
vt 0.7711 0.7862 0.3482
vt 0.7916 0.7807 0.3482
vt 0.7494 0.7920 0.3482
vt 0.6150 0.5325 0.3737
vt 0.7036 0.5435 0.3737
vt 0.5352 0.6131 0.3737
vt 0.5444 0.5321 0.3737
vt 0.4561 0.5956 0.3737
vt 0.4579 0.5344 0.3737
# 63 texture coords

o PART2
g PART2
usemtl Material__2
s 1
f 67/75/67 68/76/68 69/77/69 70/78/70 71/79/71 
f 67/75/67 72/80/72 73/81/73 68/76/68 
f 74/82/74 75/83/75 76/84/76 77/85/77 
f 78/86/78 79/87/79 80/88/80 81/89/80 
f 79/87/79 82/90/81 77/91/77 80/88/80 
f 83/92/82 71/79/71 70/78/70 
f 84/93/83 85/94/84 86/95/85 87/96/86 
f 87/96/86 86/95/85 88/97/87 71/79/71 83/92/82 
f 69/77/69 68/76/68 75/83/75 74/82/74 
f 75/83/75 68/76/68 73/81/73 89/98/88 
f 90/99/89 91/100/90 92/101/89 93/102/89 
f 92/101/89 91/100/90 76/103/76 94/104/91 
f 94/105/91 76/84/76 75/83/75 89/98/88 
f 72/80/72 67/75/67 71/79/71 88/97/87 
f 95/106/92 96/107/93 97/108/94 98/109/95 
f 95/106/92 98/109/95 73/81/73 72/80/72 
f 99/110/96 100/111/97 101/112/98 102/113/99 
f 103/114/100 104/115/101 100/111/97 99/110/96 
f 100/116/97 104/117/101 105/118/102 106/119/103 
f 104/117/101 107/120/104 108/121/105 105/118/102 
f 109/122/90 110/123/106 111/124/107 112/125/108 
f 113/126/80 114/127/100 103/114/100 99/110/96 
f 114/127/100 90/99/89 93/102/89 103/114/100 
f 103/114/100 93/102/89 107/128/104 104/115/101 
f 115/129/109 116/130/110 110/123/106 109/122/90 
f 117/131/111 113/126/80 99/110/96 102/113/99 
f 106/119/103 118/132/112 101/133/98 100/116/97 
f 118/132/112 106/119/103 119/134/113 120/135/114 
f 97/108/94 119/134/113 106/119/103 105/118/102 
f 120/135/114 119/134/113 121/136/115 122/137/116 
f 119/134/113 97/108/94 96/107/93 121/136/115 
f 122/137/116 121/136/115 86/95/85 85/94/84 
f 121/136/115 96/107/93 88/97/87 86/95/85 
f 105/118/102 108/121/105 98/109/95 97/108/94 
f 108/121/105 89/98/88 73/81/73 98/109/95 
f 92/101/89 94/104/91 107/128/104 93/102/89 
f 94/105/91 89/98/88 108/121/105 107/120/104 
f 111/124/107 78/86/78 81/89/80 112/125/108 
f 72/80/72 88/97/87 96/107/93 95/106/92 
f 77/91/77 76/103/76 91/100/90 80/88/80 
f 80/88/80 91/100/90 90/99/89 81/89/80 
f 81/89/80 90/99/89 114/127/100 112/125/108 
f 112/125/108 114/127/100 113/126/80 109/122/90 
f 109/122/90 113/126/80 117/131/111 115/129/109 
s off
f 102/113/99 101/112/98 118/132/112 120/135/114 
f 117/131/111 102/113/99 120/135/114 122/137/116 
f 115/129/109 117/131/111 122/137/116 85/94/84 
f 116/130/110 115/129/109 85/94/84 84/93/83 
f 84/93/83 87/96/86 111/124/107 110/123/106 
f 78/86/78 111/124/107 87/96/86 83/92/82 
f 83/92/82 70/78/70 79/87/79 78/86/78 
f 70/78/70 69/77/69 82/90/81 79/87/79 
f 69/77/69 74/82/74 77/91/77 82/90/81 
f 116/130/110 84/93/83 110/123/106 
# 52 polygons - 2 triangles

#
# object PART3
#

v  11.5588 -2.6822 13.8822
v  11.5033 4.2488 13.9933
v  11.4731 1.0057 13.8599
v  11.3971 -6.5946 14.0930
v  25.6941 -5.2493 13.9988
v  24.8286 9.5676 14.0860
v  23.1515 -19.0840 13.9591
v  11.6658 -43.6700 14.0139
v  34.9991 -29.5231 14.0441
v  10.5415 -34.2469 14.2679
v  40.8185 -7.9842 14.0536
v  35.9235 -54.9704 14.0441
v  49.8467 -34.1591 14.0440
v  59.6377 -9.6705 14.0441
v  56.2654 15.3090 14.1414
v  39.3421 11.8948 14.1098
v  63.9016 -38.8046 14.0436
v  69.7082 -11.1903 14.0433
v  68.9494 16.2569 14.0677
v  49.0267 32.2193 14.4892
v  61.0431 41.7274 14.6231
v  35.3904 47.4881 14.1790
v  47.1845 66.1870 14.0430
v  56.1896 38.5728 1.5443
v  46.2721 61.0805 3.3675
v  27.6055 37.9183 14.1492
v  20.2237 26.7313 14.0833
v  18.2245 19.1023 14.1464
v  32.4627 26.8799 14.2464
v  23.3327 55.5769 14.0584
v  20.6218 48.3926 14.0641
v  34.1373 75.4797 14.0393
v  9.9786 11.7516 13.9912
v  48.9777 -65.9793 14.0440
v  46.8717 -60.3009 2.8045
v  57.8393 -36.7770 -1.3642
v  63.3720 -11.1568 -3.0258
v  62.6922 14.4954 -2.6574
v  47.9220 -11.1784 -11.2862
v  46.2303 13.2476 -9.0894
v  44.6282 35.9694 -7.9641
v  36.0841 57.5485 -3.2840
v  25.9687 12.0424 -13.9822
v  26.9330 34.6473 -12.6768
v  37.8563 -57.6158 -3.8653
v  44.5311 -35.2170 -9.0286
v  21.8923 -54.1099 -9.9863
v  24.8025 -33.1517 -14.7214
v  25.3582 -11.8070 -17.0764
v  9.8864 5.5198 13.8416
v  11.4288 -1.5813 13.6301
v  9.9127 9.8470 13.8249
v  11.3265 -3.2117 13.3149
v  11.5510 24.4612 14.1079
v  9.5874 19.8208 14.0535
v  11.5419 32.7118 14.0624
v  9.6121 17.0580 14.1433
v  32.2258 72.7092 13.3576
v  29.0755 66.7913 -0.8211
v  23.3899 55.6706 -5.9693
v  20.4837 48.5367 -10.8087
v  11.5398 32.6089 -14.6407
v  9.4757 20.7668 -16.2179
v  9.7983 11.8813 -17.0299
v  10.6041 -12.0458 -16.3469
v  10.4346 -32.6946 -15.8852
v  9.3577 -53.7943 -11.1713
v  17.9083 -61.0409 -6.9466
v  27.0522 -68.2319 -1.0929
v  32.3113 -72.0701 13.2605
v  37.2334 -74.2381 14.0440
v  19.3386 -62.1170 14.0441
v  9.3623 -54.0215 13.9879
v  11.3777 -42.4216 14.1495
v  11.3502 -30.8014 13.5563
v  11.3001 -9.8209 -0.4034
v  9.7890 8.1183 -3.4103
v  9.7253 8.1183 -3.4103
# 78 vertices

vn 0.4478 0.0073 0.8941
vn -0.0951 -0.0233 0.9952
vn -0.6837 0.0233 0.7294
vn -0.6895 -0.2186 0.6905
vn -0.0065 -0.0040 1.0000
vn -0.0020 -0.0068 1.0000
vn 0.0045 0.0042 1.0000
vn 0.0337 -0.0133 0.9993
vn -0.0020 0.0004 1.0000
vn -0.9493 -0.0256 0.3133
vn -0.0015 -0.0015 1.0000
vn -0.0003 0.0004 1.0000
vn 0.0000 -0.0000 1.0000
vn 0.0000 -0.0021 1.0000
vn 0.0038 -0.0113 0.9999
vn -0.0007 -0.0060 1.0000
vn 0.8001 -0.2954 0.5221
vn 0.8357 -0.0737 0.5442
vn 0.8375 0.1371 0.5289
vn -0.0079 -0.0092 0.9999
vn 0.7734 0.3411 0.5344
vn -0.0083 0.0086 0.9999
vn 0.6155 0.6005 0.5105
vn 0.7353 0.3319 -0.5908
vn 0.5684 0.5688 -0.5945
vn -0.0101 0.0029 0.9999
vn -0.0187 0.0084 0.9998
vn -0.0181 0.0039 0.9998
vn -0.0093 -0.0038 0.9999
vn -0.0072 0.0042 1.0000
vn -0.0069 0.0035 1.0000
vn 0.5635 0.7911 -0.2378
vn -0.1337 -0.0126 0.9909
vn 0.6351 -0.6030 0.4827
vn 0.5358 -0.6023 -0.5917
vn 0.7018 -0.3036 -0.6444
vn 0.7572 -0.0850 -0.6476
vn 0.6989 0.1586 -0.6974
vn 0.3671 -0.0140 -0.9301
vn 0.2938 0.0870 -0.9519
vn 0.4339 0.2037 -0.8776
vn 0.2838 0.3693 -0.8849
vn 0.2064 0.0848 -0.9748
vn 0.1877 0.1321 -0.9733
vn 0.3630 -0.4221 -0.8307
vn 0.3630 -0.2228 -0.9048
vn 0.1798 -0.3500 -0.9193
vn 0.1682 -0.1739 -0.9703
vn 0.0995 0.0066 -0.9950
vn -0.9927 -0.1156 0.0352
vn -0.9816 -0.1903 -0.0184
vn -0.2617 0.0247 -0.9648
vn 0.0489 -0.9599 0.2761
vn 0.0436 -0.0068 -0.9990
vn -0.9051 0.4247 0.0184
vn -0.0006 0.0026 1.0000
vn -0.3899 -0.0521 0.9194
vn -0.0393 0.6234 -0.7809
vn 0.5215 0.5656 -0.6388
vn 0.1132 0.4793 -0.8703
vn 0.3907 0.2985 -0.8708
vn 0.1079 0.1340 -0.9851
vn -0.3206 0.0747 -0.9443
vn -0.6192 0.0035 -0.7852
vn -0.7358 -0.0255 -0.6767
vn -0.6633 -0.0711 -0.7449
vn -0.7083 -0.4795 -0.5181
vn -0.3051 -0.7719 -0.5578
vn -0.0453 -0.8798 -0.4731
vn 0.6796 0.1361 -0.7209
vn 0.2841 -0.9553 0.0814
vn -0.4349 -0.5637 0.7023
vn -0.8494 -0.2051 0.4863
vn -0.7415 0.0552 -0.6687
vn -0.2857 -0.4828 -0.8278
vn -0.9990 -0.0295 0.0333
vn -0.9964 -0.0850 -0.0066
vn -0.9996 -0.0274 0.0075
# 78 vertex normals

vt 0.8463 0.7504 0.3482
vt 0.8377 0.7696 0.3482
vt 0.8293 0.7636 0.3482
vt 0.8293 0.7326 0.3482
vt 0.8718 0.7472 0.3482
vt 0.8670 0.7807 0.3482
vt 0.8594 0.7111 0.3482
vt 0.8650 0.6591 0.3482
vt 0.9005 0.6931 0.3482
vt 0.8293 0.6834 0.3482
vt 0.9144 0.7431 0.3482
vt 0.9029 0.6312 0.3482
vt 0.9340 0.6810 0.3482
vt 0.9521 0.7390 0.3482
vt 0.9484 0.7973 0.3482
vt 0.9092 0.7920 0.3482
vt 0.9610 0.6716 0.3482
vt 0.9731 0.7355 0.3482
vt 0.9717 0.7991 0.3482
vt 0.9343 0.8428 0.3482
vt 0.9571 0.8603 0.3482
vt 0.8929 0.8884 0.3482
vt 0.9259 0.9173 0.3482
vt 0.0678 0.6765 0.3737
vt 0.1356 0.6320 0.3737
vt 0.1766 0.7358 0.3737
vt 0.1495 0.7903 0.3737
vt 0.8545 0.8589 0.3482
vt 0.8293 0.8411 0.3482
vt 0.8485 0.8094 0.3482
vt 0.8832 0.8269 0.3482
vt 0.8731 0.9076 0.3482
vt 0.8432 0.8721 0.3482
vt 0.8990 0.9385 0.3482
vt 0.8293 0.7964 0.3482
vt 0.9297 0.6087 0.3482
vt 0.1727 0.1830 0.3737
vt 0.1309 0.2918 0.3737
vt 0.0559 0.2583 0.3737
vt 0.1382 0.1298 0.3737
vt 0.1097 0.4076 0.3737
vt 0.0178 0.3997 0.3737
vt 0.0241 0.5435 0.3737
vt 0.1098 0.5202 0.3737
vt 0.1809 0.4089 0.3737
vt 0.1809 0.5113 0.3737
vt 0.1925 0.6131 0.3737
vt 0.2200 0.7119 0.3737
vt 0.2690 0.5046 0.3737
vt 0.2716 0.5956 0.3737
vt 0.2168 0.2041 0.3737
vt 0.1934 0.3046 0.3737
vt 0.2829 0.2261 0.3737
vt 0.2702 0.3166 0.3737
vt 0.2692 0.4085 0.3737
vt 0.8209 0.7696 0.3482
vt 0.8123 0.7504 0.3482
vt 0.7916 0.7807 0.3482
vt 0.7868 0.7472 0.3482
vt 0.7964 0.8163 0.3482
vt 0.8101 0.8094 0.3482
vt 0.8217 0.8465 0.3482
vt 0.7711 0.7862 0.3482
vt 0.2106 0.8309 0.3737
vt 0.2311 0.7913 0.3737
vt 0.2479 0.7508 0.3737
vt 0.2695 0.6936 0.3737
vt 0.2814 0.6639 0.3737
vt 0.3079 0.5935 0.3737
vt 0.3282 0.5406 0.3737
vt 0.3265 0.5021 0.3737
vt 0.3230 0.4083 0.3737
vt 0.3200 0.3176 0.3737
vt 0.3257 0.2281 0.3737
vt 0.2918 0.1927 0.3737
vt 0.2538 0.1546 0.3737
vt 0.2251 0.1263 0.3737
vt 0.1880 0.0931 0.3737
vt 0.9081 0.5896 0.3482
vt 0.8793 0.6158 0.3482
vt 0.8462 0.6458 0.3482
vt 0.8147 0.6734 0.3482
vt 0.8017 0.7088 0.3482
vt 0.8005 0.7120 0.3482
vt 0.7886 0.7420 0.3482
vt 0.7865 0.7472 0.3482
# 86 texture coords

o PART3
g PART3
usemtl Material__2
s 1
f 123/138/117 124/139/118 125/140/119 126/141/120 
f 123/138/117 127/142/121 128/143/122 124/139/118 
f 123/138/117 126/141/120 129/144/123 127/142/121 
f 130/145/124 131/146/125 129/144/123 132/147/126 
f 131/146/125 133/148/127 127/142/121 129/144/123 
f 131/146/125 130/145/124 134/149/128 135/150/129 
f 135/150/129 136/151/130 133/148/127 131/146/125 
f 137/152/131 138/153/132 133/148/127 136/151/130 
f 136/151/130 135/150/129 139/154/133 140/155/134 
f 136/151/130 140/155/134 141/156/135 137/152/131 
f 142/157/136 137/152/131 141/156/135 143/158/137 
f 144/159/138 142/157/136 143/158/137 145/160/139 
f 143/161/137 146/162/140 147/163/141 145/164/139 
f 148/165/142 149/166/143 150/167/144 151/168/145 
f 151/168/145 142/157/136 144/159/138 148/165/142 
f 148/165/142 144/159/138 152/169/146 153/170/147 
f 144/159/138 145/160/139 154/171/148 152/169/146 
f 151/168/145 150/167/144 128/143/122 138/153/132 
f 138/153/132 137/152/131 142/157/136 151/168/145 
f 150/167/144 155/172/149 124/139/118 128/143/122 
f 139/154/133 135/150/129 134/149/128 156/173/150 
f 157/174/151 158/175/152 139/176/133 156/177/150 
f 158/175/152 159/178/153 140/179/134 139/176/133 
f 141/180/135 140/179/134 159/178/153 160/181/154 
f 146/162/140 143/161/137 141/180/135 160/181/154 
f 159/178/153 161/182/155 162/183/156 160/181/154 
f 160/181/154 162/183/156 163/184/157 146/162/140 
f 164/185/158 147/163/141 146/162/140 163/184/157 
f 162/183/156 165/186/159 166/187/160 163/184/157 
f 167/188/161 168/189/162 158/175/152 157/174/151 
f 161/182/155 159/178/153 158/175/152 168/189/162 
f 168/189/162 167/188/161 169/190/163 170/191/164 
f 170/191/164 171/192/165 161/182/155 168/189/162 
f 165/186/159 162/183/156 161/182/155 171/192/165 
f 138/153/132 128/143/122 127/142/121 133/148/127 
f 125/140/119 124/139/118 155/172/149 172/193/166 
f 173/194/167 126/141/120 125/140/119 172/193/166 
f 173/194/167 172/193/166 174/195/168 175/196/169 
f 176/197/170 177/198/171 149/166/143 178/199/172 
f 179/200/173 174/195/168 177/198/171 176/197/170 
f 177/198/171 174/195/168 172/193/166 155/172/149 
f 149/166/143 148/165/142 153/170/147 178/199/172 
f 155/172/149 150/167/144 149/166/143 177/198/171 
f 154/201/148 145/164/139 147/163/141 180/202/174 
f 180/202/174 147/163/141 164/185/158 181/203/175 
f 181/203/175 164/185/158 182/204/176 
f 182/204/176 164/185/158 163/184/157 166/187/160 183/205/177 
f 183/205/177 166/187/160 184/206/178 
f 185/207/179 184/206/178 166/187/160 165/186/159 186/208/180 
f 186/208/180 165/186/159 171/192/165 187/209/181 
f 187/209/181 171/192/165 170/191/164 188/210/182 
f 188/210/182 170/191/164 169/190/163 189/211/183 
f 189/211/183 169/190/163 190/212/184 
f 190/212/184 169/190/163 167/188/161 191/213/185 
f 191/213/185 167/188/161 157/174/151 192/214/186 
f 192/214/186 157/174/151 156/177/150 193/215/187 
f 193/216/187 156/173/150 134/149/128 194/217/188 
f 194/217/188 134/149/128 130/145/124 195/218/189 
f 195/218/189 130/145/124 132/147/126 196/219/190 
f 196/219/190 132/147/126 197/220/191 
f 197/220/191 132/147/126 129/144/123 126/141/120 198/221/192 
f 198/221/192 126/141/120 173/194/167 175/196/169 199/222/193 
f 200/223/194 175/196/169 174/195/168 179/200/173 
s off
f 193/215/187 194/217/188 191/213/185 192/214/186 
f 194/217/188 195/218/189 190/212/184 191/213/185 
f 195/218/189 196/219/190 189/211/183 190/212/184 
f 196/219/190 197/220/191 188/210/182 189/211/183 
f 197/220/191 198/221/192 187/209/181 188/210/182 
f 198/221/192 199/222/193 186/208/180 187/209/181 
f 200/223/194 179/200/173 185/207/179 186/208/180 
# 66 polygons - 4 triangles

