# 3ds Max Wavefront OBJ Exporter v0.97b - (c)2007 guruware
# File Created: 24.03.2018 10:55:25

mtllib woman_mask_1part.mtl

#
# object womanmask
#

v  -42.2248 -57.0025 -29.3738
v  -26.2609 -53.4966 -35.4948
v  -21.2935 -67.3283 -29.5357
v  -27.8162 -73.4561 -25.1593
v  -5.9766 -68.5331 -30.3886
v  -5.9766 -78.7932 -23.3261
v  -29.4082 -50.2429 -11.1419
v  -5.9766 -37.4864 -11.2455
v  -17.9409 -22.5819 -11.2344
v  -41.4439 -29.4873 -11.1465
v  -26.0112 -3.0122 -11.2210
v  -48.5278 -6.5806 -11.1474
v  -24.6510 16.9260 -11.2077
v  -47.9061 16.6220 -11.1317
v  -74.0767 -10.5770 -11.0725
v  -68.2702 -38.1913 -11.0694
v  -72.5222 16.8702 -11.0720
v  -53.3463 -65.3660 -11.0643
v  -30.1084 -83.9304 -11.0631
v  -15.5971 -66.1719 -11.1214
v  -51.2403 -59.6876 -22.7040
v  -31.7687 -77.5174 -19.0967
v  -62.2079 -36.1637 -26.8727
v  -67.7405 -10.5435 -28.5343
v  -67.4224 14.4795 -28.2747
v  -52.1682 13.1481 -36.5779
v  -52.2906 -10.5651 -36.7947
v  -48.8997 -34.6037 -34.5371
v  -29.8809 -32.6811 -40.3020
v  -30.0436 -10.9464 -42.8515
v  -30.0437 11.9595 -42.7633
v  -5.9766 -84.7272 -17.4594
v  -5.9766 -90.8376 -11.0632
v  -5.9766 -60.5453 -11.1413
v  -5.9766 12.1954 -41.2789
v  -5.9766 -11.1461 -45.1600
v  -49.4103 39.7975 -34.2591
v  -29.7813 36.6863 -40.1863
v  -61.2456 42.4008 -26.4799
v  -66.6772 46.5090 -11.0681
v  -5.9766 -0.5954 -11.2783
v  -5.9766 18.7573 -11.2528
v  -6.0152 79.3882 -11.0681
v  -5.9766 79.3757 -11.0683
v  -5.9766 80.5286 -11.0677
v  -41.7146 61.7331 -28.7539
v  -28.4147 78.1535 -24.5213
v  -21.9245 71.5232 -28.9041
v  -26.0913 57.9661 -35.1744
v  -5.9766 82.2651 -23.1388
v  -5.9766 72.0830 -30.2067
v  -42.9720 38.5440 -11.1157
v  -33.4752 56.4356 -11.1056
v  -51.7534 71.1076 -11.0634
v  -51.0863 65.2476 -22.3682
v  -30.2299 86.4822 -11.0631
v  -31.3306 81.5717 -18.3441
v  -22.2440 34.3394 -11.1859
v  -18.6475 45.8452 -11.1651
v  -23.1438 73.5308 -11.0779
v  -5.9766 56.6171 -37.5894
v  -5.9766 35.8469 -42.8103
v  -5.9766 87.9861 -17.2845
v  -5.9766 93.4141 -11.0631
v  -5.9766 -32.5891 -42.7996
v  -5.9766 -53.0806 -37.6599
v  -5.9766 46.2443 -11.2077
v  -5.9766 34.7443 -11.2367
v  -5.9766 -19.7178 -11.2855
v  30.2716 -57.0025 -29.3738
v  15.8631 -73.4561 -25.1593
v  9.3403 -67.3283 -29.5357
v  14.3077 -53.4966 -35.4948
v  17.4551 -50.2429 -11.1419
v  29.4907 -29.4873 -11.1465
v  5.9877 -22.5819 -11.2344
v  14.0580 -3.0122 -11.2210
v  36.5746 -6.5806 -11.1474
v  35.9529 16.6220 -11.1317
v  12.6978 16.9260 -11.2077
v  56.3170 -38.1913 -11.0694
v  62.1236 -10.5770 -11.0725
v  60.5691 16.8702 -11.0720
v  3.6439 -66.1719 -11.1214
v  18.1552 -83.9304 -11.0631
v  41.3931 -65.3660 -11.0643
v  19.8155 -77.5174 -19.0967
v  39.2871 -59.6876 -22.7040
v  50.2547 -36.1637 -26.8727
v  55.7874 -10.5435 -28.5343
v  55.4692 14.4795 -28.2747
v  40.2150 13.1481 -36.5779
v  40.3374 -10.5651 -36.7947
v  36.9465 -34.6037 -34.5371
v  17.9278 -32.6811 -40.3020
v  18.0905 -10.9464 -42.8515
v  18.0905 11.9595 -42.7633
v  17.8281 36.6863 -40.1863
v  37.4571 39.7975 -34.2591
v  49.2924 42.4008 -26.4799
v  54.7240 46.5090 -11.0681
v  -5.9380 79.3882 -11.0681
v  29.7615 61.7331 -28.7539
v  14.1381 57.9661 -35.1744
v  9.9713 71.5232 -28.9041
v  16.4616 78.1535 -24.5213
v  31.0188 38.5440 -11.1157
v  21.5221 56.4356 -11.1056
v  39.8002 71.1076 -11.0634
v  39.1331 65.2476 -22.3682
v  19.3774 81.5717 -18.3441
v  18.2767 86.4822 -11.0631
v  6.6943 45.8452 -11.1651
v  10.2908 34.3394 -11.1859
v  11.1907 73.5308 -11.0779
# 115 vertices

vn -0.3687 -0.4052 -0.8366
vn -0.1835 -0.3404 -0.9222
vn -0.1158 -0.4621 -0.8792
vn -0.2384 -0.6068 -0.7582
vn 0.0000 -0.4998 -0.8661
vn 0.0000 -0.6476 -0.7620
vn 0.0024 0.0024 1.0000
vn -0.0000 0.0029 1.0000
vn 0.0036 0.0014 1.0000
vn 0.0029 0.0014 1.0000
vn 0.0031 -0.0002 1.0000
vn 0.0031 0.0001 1.0000
vn 0.0029 -0.0013 1.0000
vn 0.0028 -0.0011 1.0000
vn -0.8360 -0.0614 0.5452
vn -0.7974 -0.2943 0.5269
vn -0.8098 0.1057 0.5771
vn -0.6485 -0.5759 0.4978
vn -0.3714 -0.8179 0.4394
vn 0.0007 0.0026 1.0000
vn -0.6139 -0.5222 -0.5919
vn -0.3830 -0.7210 -0.5774
vn -0.7047 -0.3041 -0.6411
vn -0.7587 -0.0916 -0.6450
vn -0.7724 0.1073 -0.6261
vn -0.3735 0.0637 -0.9254
vn -0.3723 -0.0637 -0.9259
vn -0.3691 -0.2236 -0.9021
vn -0.1891 -0.1812 -0.9651
vn -0.1798 -0.0561 -0.9821
vn -0.1041 0.0528 -0.9932
vn 0.0000 -0.7146 -0.6995
vn 0.0000 -0.9383 0.3459
vn 0.0000 0.0039 1.0000
vn 0.0000 0.0491 -0.9988
vn -0.0000 0.0266 -0.9996
vn -0.3826 0.2293 -0.8950
vn -0.1841 0.1758 -0.9671
vn -0.7119 0.3000 -0.6349
vn -0.7966 0.3196 0.5132
vn -0.0000 -0.0009 1.0000
vn 0.0000 -0.0012 1.0000
vn 0.0018 -0.0031 1.0000
vn 0.0000 -0.0027 1.0000
vn 0.0000 -0.0004 1.0000
vn -0.3410 0.4039 -0.8488
vn -0.2671 0.6411 -0.7194
vn -0.1049 0.4611 -0.8811
vn -0.1870 0.3510 -0.9175
vn 0.0000 0.6537 -0.7567
vn 0.0000 0.5017 -0.8651
vn 0.0023 -0.0015 1.0000
vn 0.0016 -0.0020 1.0000
vn -0.6070 0.6061 0.5140
vn -0.6180 0.5310 -0.5797
vn -0.3542 0.8085 0.4699
vn -0.3700 0.7733 -0.5148
vn 0.0031 -0.0022 1.0000
vn 0.0031 -0.0020 1.0000
vn -0.0002 -0.0014 1.0000
vn -0.0000 0.3329 -0.9430
vn -0.0000 0.0863 -0.9963
vn 0.0000 0.7370 -0.6758
vn 0.0000 0.9314 0.3639
vn 0.0000 -0.1758 -0.9844
vn 0.0000 -0.3329 -0.9429
vn -0.0000 -0.0034 1.0000
vn 0.0000 -0.0018 1.0000
vn 0.0000 0.0007 1.0000
vn 0.3687 -0.4052 -0.8366
vn 0.2384 -0.6068 -0.7582
vn 0.1158 -0.4621 -0.8792
vn 0.1835 -0.3404 -0.9222
vn -0.0024 0.0024 1.0000
vn -0.0029 0.0014 1.0000
vn -0.0036 0.0014 1.0000
vn -0.0031 -0.0002 1.0000
vn -0.0031 0.0001 1.0000
vn -0.0028 -0.0011 1.0000
vn -0.0029 -0.0013 1.0000
vn 0.7974 -0.2943 0.5269
vn 0.8360 -0.0614 0.5452
vn 0.8098 0.1057 0.5771
vn -0.0007 0.0026 1.0000
vn 0.3714 -0.8179 0.4394
vn 0.6485 -0.5759 0.4978
vn 0.3830 -0.7210 -0.5774
vn 0.6139 -0.5222 -0.5919
vn 0.7047 -0.3041 -0.6411
vn 0.7587 -0.0916 -0.6450
vn 0.7724 0.1073 -0.6261
vn 0.3735 0.0637 -0.9254
vn 0.3723 -0.0637 -0.9259
vn 0.3691 -0.2236 -0.9021
vn 0.1891 -0.1812 -0.9651
vn 0.1798 -0.0561 -0.9821
vn 0.1041 0.0528 -0.9932
vn 0.1841 0.1758 -0.9671
vn 0.3826 0.2293 -0.8950
vn 0.7119 0.3000 -0.6349
vn 0.7966 0.3196 0.5132
vn -0.0018 -0.0031 1.0000
vn 0.3410 0.4039 -0.8488
vn 0.1870 0.3510 -0.9175
vn 0.1049 0.4611 -0.8811
vn 0.2671 0.6411 -0.7194
vn -0.0023 -0.0015 1.0000
vn -0.0016 -0.0020 1.0000
vn 0.6070 0.6061 0.5140
vn 0.6180 0.5310 -0.5797
vn 0.3700 0.7733 -0.5148
vn 0.3542 0.8085 0.4699
vn -0.0031 -0.0020 1.0000
vn -0.0031 -0.0022 1.0000
vn 0.0002 -0.0014 1.0000
# 115 vertex normals

vt 0.5109 0.2041 0.3737
vt 0.4448 0.2261 0.3737
vt 0.4273 0.1606 0.3737
vt 0.4547 0.1288 0.3737
vt 0.3667 0.1566 0.3737
vt 0.3668 0.1001 0.3737
vt 0.7557 0.6313 0.3482
vt 0.7896 0.6629 0.3482
vt 0.7580 0.6931 0.3482
vt 0.7246 0.6810 0.3482
vt 0.7442 0.7431 0.3482
vt 0.7065 0.7390 0.3482
vt 0.7494 0.7920 0.3482
vt 0.7102 0.7973 0.3482
vt 0.6854 0.7355 0.3482
vt 0.6976 0.6716 0.3482
vt 0.6869 0.7991 0.3482
vt 0.7289 0.6087 0.3482
vt 0.7774 0.5657 0.3482
vt 0.7851 0.6120 0.3482
vt 0.5895 0.1298 0.3737
vt 0.5550 0.1830 0.3737
vt 0.4762 0.0978 0.3737
vt 0.4776 0.0473 0.3737
vt 0.6718 0.2583 0.3737
vt 0.5968 0.2918 0.3737
vt 0.7099 0.3997 0.3737
vt 0.6180 0.4076 0.3737
vt 0.7036 0.5435 0.3737
vt 0.6179 0.5202 0.3737
vt 0.5468 0.5113 0.3737
vt 0.5468 0.4089 0.3737
vt 0.5343 0.3046 0.3737
vt 0.4576 0.3166 0.3737
vt 0.4585 0.4085 0.3737
vt 0.4587 0.5046 0.3737
vt 0.3669 0.0607 0.3737
vt 0.8262 0.5537 -81.3918
vt 0.8066 0.6226 0.3482
vt 0.3727 0.5046 0.3737
vt 0.3676 0.4081 0.3737
vt 0.5352 0.6131 0.3737
vt 0.4561 0.5956 0.3737
vt 0.5921 0.6320 0.3737
vt 0.6274 0.4705 0.3737
vt 0.7108 0.4980 0.3737
vt 0.6599 0.6765 0.3737
vt 0.8293 0.7691 0.3482
vt 0.8181 0.8041 0.3482
vt 0.8293 0.9299 0.3482
vt 0.8294 0.9298 0.3482
vt 0.8293 0.9330 7.3786
vt 0.5077 0.7119 0.3737
vt 0.4548 0.7856 0.3737
vt 0.4282 0.7523 0.3737
vt 0.4428 0.6879 0.3737
vt 0.3656 0.8090 0.3737
vt 0.3656 0.7529 0.3737
vt 0.7242 0.8428 0.3482
vt 0.7015 0.8603 0.3482
vt 0.7657 0.8884 0.3482
vt 0.7327 0.9173 0.3482
vt 0.5782 0.7903 0.3737
vt 0.5511 0.7358 0.3737
vt 0.4759 0.8582 0.3737
vt 0.4729 0.8155 0.3737
vt 0.7754 0.8269 0.3482
vt 0.8041 0.8589 0.3482
vt 0.7955 0.9173 0.3482
vt 0.7777 0.9529 0.3482
vt 0.3655 0.6799 0.3737
vt 0.3655 0.5903 0.3737
vt 0.3657 0.8472 0.3737
vt 0.8284 0.9689 86.0350
vt 0.3659 0.8874 92.3341
vt 0.3666 0.3183 0.3737
vt 0.3672 0.0172 -91.2352
vt 0.3667 0.2298 0.3737
vt 0.8152 0.8511 0.3482
vt 0.8127 0.8367 0.3482
vt 0.8096 0.7022 0.3482
# 81 texture coords

o womanmask
g womanmask
usemtl Material__2
s 1
f 1/1/1 2/2/2 3/3/3 4/4/4 
f 3/3/3 5/5/5 6/6/6 4/4/4 
f 7/7/7 8/8/8 9/9/9 10/10/10 
f 11/11/11 12/12/12 10/10/10 9/9/9 
f 11/11/11 13/13/13 14/14/14 12/12/12 
f 12/12/12 15/15/15 16/16/16 10/10/10 
f 12/12/12 14/14/14 17/17/17 15/15/15 
f 7/7/7 18/18/18 19/19/19 20/20/20 
f 16/16/16 18/18/18 7/7/7 10/10/10 
f 18/21/18 21/22/21 22/23/22 19/24/19 
f 21/22/21 18/21/18 16/25/16 23/26/23 
f 23/26/23 16/25/16 15/27/15 24/28/24 
f 17/29/17 25/30/25 24/28/24 15/27/15 
f 26/31/26 27/32/27 24/28/24 25/30/25 
f 4/4/4 22/23/22 21/22/21 1/1/1 
f 23/26/23 28/33/28 1/1/1 21/22/21 
f 23/26/23 24/28/24 27/32/27 28/33/28 
f 2/2/2 1/1/1 28/33/28 29/34/29 
f 27/32/27 30/35/30 29/34/29 28/33/28 
f 27/32/27 26/31/26 31/36/31 30/35/30 
f 22/23/22 4/4/4 6/6/6 32/37/32 
f 19/19/19 33/38/33 34/39/34 20/20/20 
f 31/36/31 35/40/35 36/41/36 30/35/30 
f 31/36/31 26/31/26 37/42/37 38/43/38 
f 26/31/26 25/30/25 39/44/39 37/42/37 
f 25/45/25 17/46/17 40/47/40 39/44/39 
f 11/11/11 41/48/41 42/49/42 13/13/13 
f 43/50/43 44/51/44 45/52/45 
f 46/53/46 47/54/47 48/55/48 49/56/49 
f 48/55/48 47/54/47 50/57/50 51/58/51 
f 52/59/52 40/60/40 17/17/17 14/14/14 
f 53/61/53 54/62/54 40/60/40 52/59/52 
f 40/47/40 54/63/54 55/64/55 39/44/39 
f 54/63/54 56/65/56 57/66/57 55/64/55 
f 53/61/53 52/59/52 58/67/58 59/68/59 
f 53/61/53 60/69/60 56/70/56 54/62/54 
f 52/59/52 14/14/14 13/13/13 58/67/58 
f 39/44/39 55/64/55 46/53/46 37/42/37 
f 49/56/49 38/43/38 37/42/37 46/53/46 
f 38/43/38 49/56/49 61/71/61 62/72/62 
f 47/54/47 46/53/46 55/64/55 57/66/57 
f 57/66/57 63/73/63 50/57/50 47/54/47 
f 43/50/43 45/52/45 64/74/64 56/70/56 60/69/60 
f 56/65/56 64/75/64 63/73/63 57/66/57 
f 48/55/48 51/58/51 61/71/61 49/56/49 
f 31/36/31 38/43/38 62/72/62 35/40/35 
f 65/76/65 29/34/29 30/35/30 36/41/36 
f 8/8/8 7/7/7 20/20/20 34/39/34 
f 33/77/33 19/24/19 22/23/22 32/37/32 
f 66/78/66 2/2/2 29/34/29 65/76/65 
f 5/5/5 3/3/3 2/2/2 66/78/66 
f 67/79/67 59/68/59 58/67/58 68/80/68 
f 44/51/44 43/50/43 60/69/60 53/61/53 59/68/59 67/79/67 
f 68/80/68 58/67/58 13/13/13 42/49/42 
s off
f 41/48/41 11/11/11 9/9/9 69/81/69 
f 69/81/69 9/9/9 8/8/8 
s 1
f 70/1/70 71/4/71 72/3/72 73/2/73 
f 72/3/72 71/4/71 6/6/6 5/5/5 
f 74/7/74 75/10/75 76/9/76 8/8/8 
f 77/11/77 76/9/76 75/10/75 78/12/78 
f 77/11/77 78/12/78 79/14/79 80/13/80 
f 78/12/78 75/10/75 81/16/81 82/15/82 
f 78/12/78 82/15/82 83/17/83 79/14/79 
f 74/7/74 84/20/84 85/19/85 86/18/86 
f 81/16/81 75/10/75 74/7/74 86/18/86 
f 86/21/86 85/24/85 87/23/87 88/22/88 
f 88/22/88 89/26/89 81/25/81 86/21/86 
f 89/26/89 90/28/90 82/27/82 81/25/81 
f 83/29/83 82/27/82 90/28/90 91/30/91 
f 92/31/92 91/30/91 90/28/90 93/32/93 
f 71/4/71 70/1/70 88/22/88 87/23/87 
f 89/26/89 88/22/88 70/1/70 94/33/94 
f 89/26/89 94/33/94 93/32/93 90/28/90 
f 73/2/73 95/34/95 94/33/94 70/1/70 
f 93/32/93 94/33/94 95/34/95 96/35/96 
f 93/32/93 96/35/96 97/36/97 92/31/92 
f 87/23/87 32/37/32 6/6/6 71/4/71 
f 85/19/85 84/20/84 34/39/34 33/38/33 
f 97/36/97 96/35/96 36/41/36 35/40/35 
f 97/36/97 98/43/98 99/42/99 92/31/92 
f 92/31/92 99/42/99 100/44/100 91/30/91 
f 91/45/91 100/44/100 101/47/101 83/46/83 
f 77/11/77 80/13/80 42/49/42 41/48/41 
f 102/50/102 45/52/45 44/51/44 
f 103/53/103 104/56/104 105/55/105 106/54/106 
f 105/55/105 51/58/51 50/57/50 106/54/106 
f 107/59/107 79/14/79 83/17/83 101/60/101 
f 108/61/108 107/59/107 101/60/101 109/62/109 
f 101/47/101 100/44/100 110/64/110 109/63/109 
f 109/63/109 110/64/110 111/66/111 112/65/112 
f 108/61/108 113/68/113 114/67/114 107/59/107 
f 108/61/108 109/62/109 112/70/112 115/69/115 
f 107/59/107 114/67/114 80/13/80 79/14/79 
f 100/44/100 99/42/99 103/53/103 110/64/110 
f 104/56/104 103/53/103 99/42/99 98/43/98 
f 98/43/98 62/72/62 61/71/61 104/56/104 
f 106/54/106 111/66/111 110/64/110 103/53/103 
f 111/66/111 106/54/106 50/57/50 63/73/63 
f 102/50/102 115/69/115 112/70/112 64/74/64 45/52/45 
f 112/65/112 111/66/111 63/73/63 64/75/64 
f 105/55/105 104/56/104 61/71/61 51/58/51 
f 97/36/97 35/40/35 62/72/62 98/43/98 
f 65/76/65 36/41/36 96/35/96 95/34/95 
f 8/8/8 34/39/34 84/20/84 74/7/74 
f 33/77/33 32/37/32 87/23/87 85/24/85 
f 66/78/66 65/76/65 95/34/95 73/2/73 
f 5/5/5 66/78/66 73/2/73 72/3/72 
f 67/79/67 68/80/68 114/67/114 113/68/113 
f 44/51/44 67/79/67 113/68/113 108/61/108 115/69/115 102/50/102 
f 68/80/68 42/49/42 80/13/80 114/67/114 
s off
f 41/48/41 69/81/69 76/9/76 77/11/77 
f 69/81/69 8/8/8 76/9/76 
# 108 polygons - 4 triangles

